<?xml version="1.0" encoding="iso-8859-1"?>
<!-- Generator: Adobe Illustrator 16.0.0, SVG Export Plug-In . SVG Version: 6.00 Build 0)  -->
<!DOCTYPE svg PUBLIC "-//W3C//DTD SVG 1.1//EN" "http://www.w3.org/Graphics/SVG/1.1/DTD/svg11.dtd">
<svg version="1.1" id="Capa_1" xmlns="http://www.w3.org/2000/svg" xmlns:xlink="http://www.w3.org/1999/xlink" x="0px" y="0px"
	 width="493.5px" height="493.5px" viewBox="0 0 493.5 493.5" style="enable-background:new 0 0 493.5 493.5;" xml:space="preserve"
	>
<g>
	<g>
		<g id="Icons_21_">
			<g>
				<path d="M157.88,178.688c2.82,0,5.689-0.484,8.481-1.5l179.999-65.242c12.943-4.687,19.626-18.975,14.938-31.91
					c-4.668-12.929-19.025-19.602-31.901-14.933l-180.005,65.245c-12.938,4.688-19.619,18.977-14.938,31.909
					C138.121,172.388,147.687,178.688,157.88,178.688z"/>
				<path d="M177.078,96.261c2.821,0,5.696-0.486,8.482-1.5l128.117-46.425c12.944-4.689,19.627-18.979,14.938-31.912
					c-4.688-12.927-19.026-19.61-31.899-14.93L168.598,47.922c-12.944,4.686-19.627,18.975-14.938,31.909
					C157.327,89.961,166.893,96.261,177.078,96.261z"/>
				<path d="M340.795,314.022H330.14l0.636-42.688l17.552-11.509c11.496-7.534,14.724-22.982,7.187-34.488
					c-7.545-11.518-22.972-14.713-34.502-7.179l-17.562,11.5c-14.503,9.52-23.165,25.562-23.165,42.918v41.446h-55.828V272.08
					c0-13.307-5.339-25.83-14.353-35.284l136.256-49.398c12.943-4.686,19.626-18.975,14.938-31.907
					c-4.668-12.938-19.025-19.587-31.901-14.932c0,0-177.757,64.358-189.922,68.942c-10.876,4.098-19.217,22.038-2.646,34.555
					c9.388,7.09,37.802,28.024,37.802,28.024v41.941h-8.807c-13.93,0-25.24,11.308-25.24,25.247v73.069
					c0,13.941,11.312,25.244,25.24,25.244h21.261v29.512c0,14.582,11.828,26.406,26.406,26.406h79.604
					c14.585,0,26.404-11.824,26.404-26.406v-29.512h21.296c13.938,0,25.24-11.303,25.24-25.244V339.27
					C366.035,325.329,354.732,314.022,340.795,314.022z"/>
			</g>
		</g>
	</g>
</g>
<g>
</g>
<g>
</g>
<g>
</g>
<g>
</g>
<g>
</g>
<g>
</g>
<g>
</g>
<g>
</g>
<g>
</g>
<g>
</g>
<g>
</g>
<g>
</g>
<g>
</g>
<g>
</g>
<g>
</g>
</svg>
